<svg xmlns="http://www.w3.org/2000/svg" viewBox="0 0 64 64">
  <defs>
    <radialGradient id="core" cx="50%" cy="48%" r="58%">
      <stop offset="0" stop-color="#fff7cf"/>
      <stop offset="0.18" stop-color="#ffb83d"/>
      <stop offset="0.58" stop-color="#ff6a21" stop-opacity="0.45"/>
      <stop offset="1" stop-color="#050505" stop-opacity="0"/>
    </radialGradient>
    <linearGradient id="ring" x1="10" y1="10" x2="54" y2="54">
      <stop offset="0" stop-color="#ffcf6a"/>
      <stop offset="0.55" stop-color="#ff8a25"/>
      <stop offset="1" stop-color="#2de6ff"/>
    </linearGradient>
    <filter id="glow" x="-40%" y="-40%" width="180%" height="180%">
      <feGaussianBlur stdDeviation="2.5" result="blur"/>
      <feMerge>
        <feMergeNode in="blur"/>
        <feMergeNode in="SourceGraphic"/>
      </feMerge>
    </filter>
  </defs>
  <rect width="64" height="64" rx="14" fill="#050505"/>
  <circle cx="32" cy="32" r="25" fill="url(#core)" opacity="0.95"/>
  <path d="M11 33a21 21 0 0 1 37-14" fill="none" stroke="url(#ring)" stroke-width="2.4" stroke-linecap="round" filter="url(#glow)"/>
  <path d="M53 31a21 21 0 0 1-36 15" fill="none" stroke="#ffb83d" stroke-width="2.4" stroke-linecap="round" opacity="0.9" filter="url(#glow)"/>
  <path d="M23 17h18" fill="none" stroke="#fff2c4" stroke-width="2.8" stroke-linecap="round"/>
  <path d="M39 17v25c0 7-4.6 10-10.2 10-4.1 0-7.4-1.8-9.2-5" fill="none" stroke="#fff2c4" stroke-width="5.2" stroke-linecap="round" stroke-linejoin="round" filter="url(#glow)"/>
  <path d="M39 17v25c0 7-4.6 10-10.2 10-4.1 0-7.4-1.8-9.2-5" fill="none" stroke="#120702" stroke-width="1.4" stroke-linecap="round" stroke-linejoin="round" opacity="0.55"/>
  <circle cx="32" cy="32" r="3.8" fill="#fff8dc" filter="url(#glow)"/>
</svg>
